<?xml version="1.0" encoding="UTF-8" standalone="no"?>
<!-- Created with Inkscape (http://www.inkscape.org/) -->

<svg
   width="2048"
   height="2048"
   viewBox="0 0 2048 2048"
   version="1.1"
   id="svg1"
   xml:space="preserve"
   xmlns:xlink="http://www.w3.org/1999/xlink"
   xmlns="http://www.w3.org/2000/svg"
   xmlns:svg="http://www.w3.org/2000/svg"><defs
     id="defs1"><clipPath
       clipPathUnits="userSpaceOnUse"
       id="clipPath8"><rect
         style="fill:#ff0000;fill-rule:evenodd;stroke:#00ffff;stroke-width:16;stroke-linecap:round;stroke-linejoin:round"
         id="rect9"
         width="320"
         height="128"
         x="320"
         y="384" /></clipPath><clipPath
       clipPathUnits="userSpaceOnUse"
       id="clipPath3"><rect
         style="fill:#ff00ff;fill-rule:evenodd;stroke:none;stroke-width:4.23333;stroke-linecap:round;stroke-linejoin:round"
         id="rect3"
         width="151.9035"
         height="106.04584"
         x="21.137516"
         y="14.330519" /></clipPath><clipPath
       clipPathUnits="userSpaceOnUse"
       id="clipPath3-5"><rect
         style="fill:#ff00ff;fill-rule:evenodd;stroke:none;stroke-width:4.23333;stroke-linecap:round;stroke-linejoin:round"
         id="rect3-5"
         width="151.9035"
         height="106.04584"
         x="21.137516"
         y="14.330519" /></clipPath><clipPath
       clipPathUnits="userSpaceOnUse"
       id="clipPath9"><path
         style="fill:#ff0000;fill-rule:evenodd;stroke:none;stroke-width:4.23333;stroke-linecap:round;stroke-linejoin:round"
         d="m 28.302774,21.854041 -6.448733,194.536789 34.393247,-3.58263 21.137515,-85.62485 59.829907,8.59831 19.3462,-59.829913 35.46804,24.003619 10.74789,-70.219541 z"
         id="path9" /></clipPath><clipPath
       clipPathUnits="userSpaceOnUse"
       id="clipPath10"><path
         style="fill:#ff0000;fill-rule:evenodd;stroke:none;stroke-width:4.23333;stroke-linecap:round;stroke-linejoin:round"
         d="m 28.302774,21.854041 -6.448733,194.536789 34.393247,-3.58263 21.137515,-85.62485 59.829907,8.59831 19.3462,-59.829913 35.46804,24.003619 10.74789,-70.219541 z"
         id="path10" /></clipPath><linearGradient
       id="linearGradient24"><stop
         style="stop-color:#000000;stop-opacity:0.74141002;"
         offset="0"
         id="stop24" /><stop
         style="stop-color:#f00000;stop-opacity:1;"
         offset="0.10051107"
         id="stop26" /><stop
         style="stop-color:#14c800;stop-opacity:0.83137256;"
         offset="0.24872231"
         id="stop27" /><stop
         style="stop-color:#000a96;stop-opacity:0.62352943;"
         offset="0.43356049"
         id="stop28" /><stop
         style="stop-color:#000000;stop-opacity:0;"
         offset="1"
         id="stop25" /></linearGradient><linearGradient
       id="linearGradient15"><stop
         style="stop-color:#0c00ff;stop-opacity:1;"
         offset="0"
         id="stop16" /><stop
         style="stop-color:#0c00ff;stop-opacity:0;"
         offset="0.10988075"
         id="stop17" /><stop
         style="stop-color:#ff9c00;stop-opacity:1;"
         offset="0.15758093"
         id="stop18" /><stop
         style="stop-color:#faff00;stop-opacity:0.42135921;"
         offset="0.23594548"
         id="stop19" /><stop
         style="stop-color:#0014ff;stop-opacity:0.60776699;"
         offset="0.5383305"
         id="stop20" /><stop
         style="stop-color:#00ffd5;stop-opacity:1;"
         offset="0.93952298"
         id="stop21" /><stop
         style="stop-color:#00ffd5;stop-opacity:0;"
         offset="0.96678025"
         id="stop22" /><stop
         style="stop-color:#00ffd5;stop-opacity:1;"
         offset="0.99914819"
         id="stop23" /></linearGradient><linearGradient
       id="linearGradient6"><stop
         style="stop-color:#ffffff;stop-opacity:1;"
         offset="0"
         id="stop7" /><stop
         style="stop-color:#ff0000;stop-opacity:1;"
         offset="0.08773424"
         id="stop8" /><stop
         style="stop-color:#2eff00;stop-opacity:1;"
         offset="0.13969336"
         id="stop9" /><stop
         style="stop-color:#ffffff;stop-opacity:0;"
         offset="0.20017035"
         id="stop10" /><stop
         style="stop-color:#161629;stop-opacity:1;"
         offset="0.26235095"
         id="stop11" /><stop
         style="stop-color:#87eeff;stop-opacity:1;"
         offset="0.35178876"
         id="stop12" /><stop
         style="stop-color:#fb87ff;stop-opacity:1;"
         offset="0.46678025"
         id="stop13" /><stop
         style="stop-color:#87a1ff;stop-opacity:1;"
         offset="0.64054513"
         id="stop14" /><stop
         style="stop-color:#ff879e;stop-opacity:1;"
         offset="0.72827941"
         id="stop15" /></linearGradient><linearGradient
       id="linearGradient5"><stop
         style="stop-color:#ffffff;stop-opacity:1;"
         offset="0.57495743"
         id="stop5" /><stop
         style="stop-color:#ee9fff;stop-opacity:1;"
         offset="1"
         id="stop6" /></linearGradient><linearGradient
       id="linearGradient3"><stop
         style="stop-color:#00ff05;stop-opacity:1;"
         offset="0"
         id="stop3" /><stop
         style="stop-color:#00ff05;stop-opacity:0;"
         offset="1"
         id="stop4" /></linearGradient><linearGradient
       id="linearGradient1"><stop
         style="stop-color:#ff0000;stop-opacity:1;"
         offset="0"
         id="stop1" /><stop
         style="stop-color:#ff0000;stop-opacity:0;"
         offset="1"
         id="stop2" /></linearGradient><linearGradient
       xlink:href="#linearGradient1"
       id="linearGradient2"
       x1="44.253708"
       y1="93.327499"
       x2="129.50385"
       y2="93.327499"
       gradientUnits="userSpaceOnUse" /><linearGradient
       xlink:href="#linearGradient3"
       id="linearGradient4"
       x1="60.733803"
       y1="63.591675"
       x2="168.55449"
       y2="63.591675"
       gradientUnits="userSpaceOnUse"
       gradientTransform="translate(14.330526,7.1652593)" /><radialGradient
       xlink:href="#linearGradient5"
       id="radialGradient6"
       cx="108.55368"
       cy="103.71712"
       fx="108.55368"
       fy="103.71712"
       r="86.512283"
       gradientTransform="matrix(1,0,0,1.2049883,0,-21.260801)"
       gradientUnits="userSpaceOnUse" /><linearGradient
       xlink:href="#linearGradient6"
       id="linearGradient8"
       x1="8.3642244"
       y1="152.04335"
       x2="80.531662"
       y2="137.92477"
       gradientUnits="userSpaceOnUse" /><radialGradient
       xlink:href="#linearGradient15"
       id="radialGradient17"
       cx="104.48846"
       cy="173.53941"
       fx="104.48846"
       fy="173.53941"
       r="53.552086"
       gradientTransform="matrix(0.35378155,0.93532808,-0.46829936,0.17713108,148.79077,45.069202)"
       gradientUnits="userSpaceOnUse" /><linearGradient
       xlink:href="#linearGradient24"
       id="linearGradient25"
       x1="154.1666"
       y1="192.55502"
       x2="234.16983"
       y2="192.55502"
       gradientUnits="userSpaceOnUse" /></defs><g
     id="layer1"><path
       id="rect1"
       style="fill:#ff0000;fill-rule:evenodd;stroke:#00ff00;stroke-width:16;stroke-linecap:round;stroke-linejoin:round"
       d="m 128,64 v 125.73251 h 95.17395 V 64 Z m 31.72465,31.433127 h 31.72465 v 62.866253 h -31.72465 z" /><rect
       style="fill:#ff0000;fill-rule:evenodd;stroke:#00ff00;stroke-width:16.0001;stroke-linecap:round;stroke-linejoin:round"
       id="rect2"
       width="31.705204"
       height="31.45274"
       x="82.583565"
       y="40.68792"
       transform="matrix(0.96651822,0.25659799,-0.26105653,0.96532351,0,0)" /><path
       style="fill:#ff0000;fill-rule:evenodd;stroke:#00ff00;stroke-width:16;stroke-linecap:round;stroke-linejoin:round"
       d="M 254.8986,189.73251 V 64 h 95.17394 v 94.29938 h -63.4493 V 95.433127 h 31.72465 v 94.299383 z"
       id="path2" /><path
       style="fill:#ff0000;fill-rule:evenodd;stroke:none;stroke-width:16;stroke-linecap:round;stroke-linejoin:round"
       d="m 413.52184,189.73251 c -31.72465,-62.86625 -31.72465,-62.86625 0,-94.299383 31.72465,-31.433127 95.17395,0 95.17395,31.433133 0,31.43312 -31.72465,31.43312 -63.4493,0 C 413.52184,95.433127 445.24649,64 476.97114,64 c 31.72465,0 31.72465,31.433127 0,62.86626 -31.72465,31.43312 0,31.43312 31.72465,31.43312 31.72465,0 0,-62.866253 -31.72465,-62.866253 -31.72465,0 -63.4493,31.433133 -31.72465,62.866253 31.72465,31.43313 0,94.29939 -31.72465,31.43313 z"
       id="path3" /><path
       style="fill:#ff0000;fill-rule:evenodd;stroke:none;stroke-width:16;stroke-linecap:round;stroke-linejoin:round"
       d="m 381.79719,409.7644 c 31.72465,-31.43312 31.72465,-31.43312 63.4493,0 31.72465,31.43313 31.72465,0 0,31.43313 -31.72465,31.43313 -63.4493,0 -31.72465,-31.43313 31.72465,-31.43312 31.72465,-31.43312 63.4493,0 31.72465,31.43313 0,31.43313 -31.72465,62.86626 -31.72465,31.43313 -63.4493,0 -31.72465,-31.43313 31.72465,-31.43313 31.72465,-31.43313 63.4493,0 31.72465,31.43313 31.72465,0 0,31.43313 -31.72465,31.43313 -31.72465,31.43313 -63.4493,0 -31.72465,-31.43313 -63.4493,-31.43313 -31.72465,-62.86626 z"
       id="path4" /><path
       id="path5"
       style="fill:#ff0000;fill-rule:evenodd;stroke:#00ffff;stroke-width:8;stroke-linecap:round;stroke-linejoin:round;stroke-dasharray:none"
       d="M 64.550702,126.86626 96.275351,315.46502 128,252.59877 191.4493,284.03189 Z M 96.275351,189.73251 159.72465,221.16564 128,284.03189 64.550702,252.59877 Z" /><path
       id="rect6"
       style="fill:#ff0000;fill-rule:evenodd;stroke:#00ffff;stroke-width:32.4271;stroke-linecap:round;stroke-linejoin:round"
       d="M 384,384 V 640 H 576 V 384 Z m 64,64 h 64 v 128 h -64 z"
       clip-path="url(#clipPath8)"
       transform="matrix(0.49569764,0,0,0.49114262,32.826053,32.566872)" /><path
       style="fill:#ff0000;fill-rule:evenodd;stroke:none;stroke-width:4.23334;stroke-linecap:round;stroke-linejoin:round"
       d="m 331.17541,215.73272 -6.70696,200.46756 35.77047,-3.69186 21.98394,-88.23526 62.22572,8.86045 20.12089,-61.65393 36.88831,24.73541 11.17828,-72.3603 z"
       id="path13" /><path
       id="rect4"
       style="fill:#ff00ff;fill-rule:evenodd;stroke:#00ff00;stroke-width:15.4551;stroke-linecap:round;stroke-linejoin:round"
       d="M 38.334094,42.274939 V 171.2495 h 22.593453 a 12.360072,12.360072 0 0 1 -0.380855,-3.0453 12.360072,12.360072 0 0 1 12.359969,-12.35997 12.360072,12.360072 0 0 1 12.359969,12.35997 12.360072,12.360072 0 0 1 -0.380855,3.0453 H 183.43066 V 42.274939 Z M 153.69501,57.6802 A 22.212305,22.212305 0 0 1 175.90709,79.892798 22.212305,22.212305 0 0 1 153.69501,102.10488 22.212305,22.212305 0 0 1 131.48241,79.892798 22.212305,22.212305 0 0 1 153.69501,57.6802 Z M 66.636759,58.396952 A 15.047045,15.047045 0 0 1 81.683903,73.444096 15.047045,15.047045 0 0 1 66.636759,88.490723 15.047045,15.047045 0 0 1 51.589616,73.444096 15.047045,15.047045 0 0 1 66.636759,58.396952 Z m 40.841951,11.822534 a 8.9565744,8.9565744 0 0 1 8.95656,8.95656 8.9565744,8.9565744 0 0 1 -8.95656,8.956559 8.9565744,8.9565744 0 0 1 -8.956558,-8.956559 8.9565744,8.9565744 0 0 1 8.956558,-8.95656 z M 76.847506,107.47871 A 20.241858,20.241858 0 0 1 97.089164,127.72089 20.241858,20.241858 0 0 1 76.847506,147.96254 20.241858,20.241858 0 0 1 56.60533,127.72089 20.241858,20.241858 0 0 1 76.847506,107.47871 Z m 56.426534,1.43299 a 19.704464,19.704464 0 0 1 19.70422,19.70474 19.704464,19.704464 0 0 1 -19.70422,19.70422 19.704464,19.704464 0 0 1 -19.70474,-19.70422 19.704464,19.704464 0 0 1 19.70474,-19.70474 z m 36.9011,37.61786 a 5.3739448,5.3739448 0 0 1 5.37383,5.37383 5.3739448,5.3739448 0 0 1 -5.37383,5.37383 5.3739448,5.3739448 0 0 1 -5.37435,-5.37383 5.3739448,5.3739448 0 0 1 5.37435,-5.37383 z"
       clip-path="url(#clipPath9)"
       transform="matrix(1.0400437,0,0,1.0304866,301.73929,193.21242)" /><path
       id="rect4-7"
       style="fill:#ff00ff;fill-rule:evenodd;stroke:#00ff00;stroke-width:8;stroke-linecap:round;stroke-linejoin:round;stroke-dasharray:none"
       d="M 64.550701,346.89814 V 504.06378 H 92.33794 c -0.311124,-1.21289 -0.468474,-2.45948 -0.468404,-3.71093 6.9e-5,-8.31827 6.805869,-15.06153 15.201274,-15.0616 8.39541,7e-5 15.20122,6.74333 15.20128,15.0616 7e-5,1.25145 -0.15728,2.49804 -0.4684,3.71093 l 133.09491,10e-6 V 346.89815 Z M 206.4308,365.67067 c 15.08761,1.5e-4 27.31839,12.11883 27.31819,27.06779 -1.5e-4,14.94873 -12.23083,27.06702 -27.31819,27.06717 -15.08761,2e-4 -27.31869,-12.11819 -27.31884,-27.06717 -1.9e-4,-14.94921 12.23098,-27.068 27.31884,-27.06779 z m -107.071213,0.87341 c 10.220713,-6e-5 18.506253,8.20934 18.506183,18.33613 -2.8e-4,10.12655 -8.28572,18.33557 -18.506183,18.3355 -10.220463,6e-5 -18.505896,-8.20895 -18.506179,-18.3355 -6.7e-5,-10.12679 8.285468,-18.33619 18.506179,-18.33613 z m 50.230703,14.40669 c 6.08369,1e-5 11.01549,4.88649 11.0155,10.91428 -1e-5,6.02777 -4.93181,10.91426 -11.0155,10.91426 -6.08368,0 -11.01548,-4.88648 -11.01549,-10.91426 1e-5,-6.02779 4.93181,-10.91427 11.01549,-10.91428 z m -37.6727,45.4033 c 13.74921,1.3e-4 24.89502,11.04381 24.8948,24.66668 -1.4e-4,13.62262 -11.14584,24.66591 -24.8948,24.66604 -13.749219,2.2e-4 -24.895318,-11.04317 -24.895457,-24.66604 -2.18e-4,-13.62312 11.145985,-24.6669 24.895457,-24.66668 z m 69.39786,1.74621 c 13.38416,1.6e-4 24.23402,10.7506 24.23383,24.01177 -1.7e-4,13.26092 -10.84992,24.01098 -24.23383,24.01114 -13.38415,1.9e-4 -24.2343,-10.74997 -24.23447,-24.01114 -1.8e-4,-13.26141 10.85007,-24.01196 24.23447,-24.01177 z m 45.38393,45.84032 c 3.65011,7e-5 6.60909,2.93186 6.60917,6.54843 -8e-5,3.61657 -2.95906,6.54836 -6.60917,6.54843 -3.65035,2.8e-4 -6.60972,-2.93162 -6.6098,-6.54843 8e-5,-3.61681 2.95945,-6.54871 6.6098,-6.54843 z"
       clip-path="none" /><g
       id="layer1-2"
       transform="matrix(2.3207076,0,0,2.3207076,472.07205,250.87413)"
       style="stroke-width:1.62861"><rect
         style="fill:url(#radialGradient6);fill-opacity:1;stroke:#000000;stroke-width:1.72361;stroke-linecap:round;stroke-linejoin:round"
         id="rect4-76"
         width="171.96623"
         height="207.43425"
         x="22.570568"
         y="0" /><rect
         style="fill:url(#linearGradient2);stroke:#000000;stroke-width:1.72361;stroke-linecap:round;stroke-linejoin:round"
         id="rect1-1"
         width="84.191803"
         height="89.923996"
         x="44.782871"
         y="48.365498" /><rect
         style="fill:url(#linearGradient4);stroke:#000000;stroke-width:1.72361;stroke-linecap:round;stroke-linejoin:miter"
         id="rect2-4"
         width="106.76236"
         height="97.805786"
         x="75.593491"
         y="21.85404" /><ellipse
         style="fill:#005dff;fill-opacity:0.391501;stroke:#000000;stroke-width:1.72361;stroke-linecap:round;stroke-linejoin:round"
         id="path4-2"
         cx="108.55367"
         cy="129.33293"
         rx="53.022919"
         ry="51.948128" /><ellipse
         style="fill:#ff6100;fill-opacity:0.391501;stroke:#000000;stroke-width:1.72361;stroke-linecap:round;stroke-linejoin:round"
         id="ellipse4"
         cx="150.05771"
         cy="148.95229"
         rx="53.022919"
         ry="51.948128" /><path
         style="fill:url(#linearGradient8);fill-opacity:1;stroke:#000000;stroke-width:1.72361;stroke-linecap:round;stroke-linejoin:round"
         id="path6"
         d="M 67.711702,179.84801 35.219377,167.23081 6.4052328,186.84432 8.3642248,152.04336 -19.193397,130.70039 14.509651,121.80941 26.292248,89.005212 45.162885,118.31125 80.002553,119.38011 57.9622,146.38322 Z" /><ellipse
         style="fill:url(#radialGradient17);stroke:#000000;stroke-width:1.72361;stroke-linecap:round;stroke-linejoin:round"
         id="ellipse15"
         cx="104.48846"
         cy="173.53941"
         rx="53.022919"
         ry="35.24992" /><path
         style="fill:#0c00ff;fill-opacity:0.391501;stroke:#000000;stroke-width:8.14305;stroke-linecap:round;stroke-linejoin:round;stroke-dasharray:none;stroke-opacity:0.74141"
         id="path23"
         d="M 44.78287,195.25332 104.80679,225.84859 94.257372,292.38918 27.713559,302.91826 -2.8633641,242.885 Z" /><path
         style="fill:#0c00ff;fill-opacity:0.391501;stroke:url(#linearGradient25);stroke-width:8.14303;stroke-linecap:round;stroke-linejoin:round;stroke-dasharray:none;stroke-opacity:0.74141"
         id="path24"
         d="m 172.32449,228.57177 -15.65795,-43.65255 36.67747,-28.38097 38.32587,26.11214 -12.99078,44.51916 z" /></g><g
       id="layer1-7"
       transform="matrix(2.4646129,0,0,2.4646129,-27.925961,436.04775)"
       style="stroke-width:1.53352"><circle
   style="fill:#ff00ff;stroke-width:6.49189;stroke-linecap:round;stroke-linejoin:round"
   id="path1"
   cx="161.0392"
   cy="56.784679"
   r="32.064537" /><rect
   style="fill:#ff0000;stroke-width:6.49189;stroke-linecap:round;stroke-linejoin:round"
   id="rect1-11"
   width="19.704464"
   height="83.475273"
   x="42.991558"
   y="22.212305" /><rect
   style="fill:#0000ff;stroke-width:6.49189;stroke-linecap:round;stroke-linejoin:round"
   id="rect2-5"
   width="88.490959"
   height="13.613993"
   x="11.822678"
   y="44.066345" /><rect
   style="fill:#00ff00;stroke:#000000;stroke-width:6.49189;stroke-linecap:round;stroke-linejoin:round"
   id="rect3-2"
   width="86.341377"
   height="19.704464"
   x="15.047045"
   y="71.294334" /><rect
   style="fill:#00ffff;stroke:#000000;stroke-width:6.49189;stroke-linecap:round;stroke-linejoin:round"
   id="rect4-761"
   width="27.227985"
   height="75.951752"
   x="83.475273"
   y="33.318459"
   ry="10.389627" /><rect
   style="fill:#00ffff;stroke:#000000;stroke-width:6.49189;stroke-linecap:round;stroke-linejoin:round"
   id="rect5"
   width="11.106153"
   height="83.117012"
   x="3.5034168"
   y="48.027546"
   transform="rotate(-15)" /><rect
   style="fill:#ff0000;stroke-width:6.49189;stroke-linecap:round;stroke-linejoin:round"
   id="rect6-4"
   width="19.704464"
   height="83.475273"
   x="52.389545"
   y="-224.02261"
   ry="9.852232"
   transform="rotate(105)" /><rect
   x="26.74901"
   y="114.72865"
   width="73.033783"
   height="32.459457"
   rx="24.344593"
   ry="6.4918981"
   fill="#ffd700"
   stroke="#000000"
   stroke-width="4"
   id="rect1-2" /><rect
   style="fill:#00ff00;stroke:#000000;stroke-width:6.49189;stroke-linecap:round;stroke-linejoin:miter"
   id="rect7"
   width="86.341377"
   height="19.704464"
   x="20.095215"
   y="157.99907" /><rect
   style="fill:#ff0000;stroke:#000000;stroke-width:6.49189;stroke-linecap:round;stroke-linejoin:miter"
   id="rect8"
   width="86.341377"
   height="19.704464"
   x="120.25385"
   y="64.100815"
   transform="rotate(45)" /><ellipse
   style="fill:#ff00ff;stroke:#000000;stroke-width:6.49189;stroke-linecap:round;stroke-linejoin:round"
   id="circle8"
   cx="141.16861"
   cy="137.1425"
   rx="32.064537"
   ry="17.871086" /><ellipse
   style="fill:#ff00ff;stroke:#000000;stroke-width:6.49189;stroke-linecap:round;stroke-linejoin:round"
   id="ellipse8"
   cx="191.75526"
   cy="138.02922"
   rx="32.064537"
   ry="17.871086"
   transform="rotate(15)" /><path
   style="fill:#ff0000;stroke:#000000;stroke-width:6.49189;stroke-linecap:round;stroke-linejoin:miter"
   d="m 227.5088,-150.95585 17.53007,51.93513"
   id="path8" /><path
   style="fill:#ff0000;stroke:#000000;stroke-width:6.49189;stroke-linecap:round;stroke-linejoin:miter"
   d="m 245.03887,-150.95585 c 25.96757,25.96756 51.93513,-1e-5 51.93513,-1e-5"
   id="path11" /><path
   style="fill:#ff0000;stroke:#000000;stroke-width:6.49189;stroke-linecap:round;stroke-linejoin:miter"
   d="m 322.94157,-150.95585 c 25.96757,25.96756 25.96757,25.96756 51.93513,0"
   id="path12" />  <path
   d="m 180.55077,-80.853091 q 60,-79.999999 120,0 60,79.99999969 120,0"
   fill="none"
   stroke="#000000"
   stroke-width="4"
   id="path7" />

<path
   d="m 179.03894,-43.554249 q 60,-80.000001 120,0 60,79.999999 120,0"
   fill="none"
   stroke="#000000"
   stroke-width="4"
   id="path14"
   style="fill:#ffff00" /><path
   style="fill:#cccccc;stroke:#000000;stroke-width:6.49189;stroke-linecap:round;stroke-linejoin:round"
   id="path15"
   d="m 374.87672,186.62251 a 25.967567,25.967567 0 0 1 -15.39446,23.71759 25.967567,25.967567 0 0 1 -27.93065,-4.40359 l 17.35754,-19.314 z" /><path
   style="fill:#cccccc;stroke:#000000;stroke-width:6.49189;stroke-linecap:round;stroke-linejoin:round"
   id="path16"
   d="m 452.7794,186.62251 a 25.967567,25.967567 0 0 1 -15.39446,23.71759 25.967567,25.967567 0 0 1 -27.93065,-4.40359" /><path
   style="fill:#cccccc;stroke:#000000;stroke-width:6.49189;stroke-linecap:round;stroke-linejoin:round"
   id="path17"
   d="M 530.68211,186.62251 A 25.967567,25.967567 0 0 1 515.28765,210.3401 25.967567,25.967567 0 0 1 487.357,205.93651 Z" /><path
   style="fill:#cccccc;stroke:#000000;stroke-width:6.49189;stroke-linecap:round;stroke-linejoin:miter"
   id="path18"
   d="m 374.87672,238.55765 a 25.967567,25.967567 0 0 1 -15.39446,23.71758 25.967567,25.967567 0 0 1 -27.93065,-4.40359 l 17.35754,-19.31399 z" /><path
   style="fill:#cccccc;stroke:#000000;stroke-width:6.49189;stroke-linecap:butt;stroke-linejoin:miter"
   id="path19"
   d="m 452.7794,238.55765 a 25.967567,25.967567 0 0 1 -15.39446,23.71758 25.967567,25.967567 0 0 1 -27.93065,-4.40359" /><path
   style="fill:#cccccc;stroke:#000000;stroke-width:6.49189;stroke-linecap:round;stroke-linejoin:miter"
   id="path20"
   d="M 530.68211,238.55765 A 25.967567,25.967567 0 0 1 515.28765,262.27523 25.967567,25.967567 0 0 1 487.357,257.87164 Z" /><path
   style="fill:#cccccc;stroke:#000000;stroke-width:6.49189;stroke-linecap:square;stroke-linejoin:round"
   id="path22"
   d="m 452.7794,290.49277 a 25.967567,25.967567 0 0 1 -15.39446,23.71758 25.967567,25.967567 0 0 1 -27.93065,-4.40359" /><path
   style="fill:#cccccc;stroke:#000000;stroke-width:6.49189;stroke-linecap:square;stroke-linejoin:round"
   id="path21"
   d="m 324.06895,375.96378 a 25.967567,25.967567 0 0 1 15.31863,-31.72724 25.967567,25.967567 0 0 1 32.84592,12.74452 25.967567,25.967567 0 0 1 -10.08952,33.75617 25.967567,25.967567 0 0 1 -34.45219,-7.37051" /><path
   style="fill:#ffff00;stroke:#000000;stroke-width:6.49189169;stroke-linecap:square;stroke-linejoin:round;stroke-dasharray:none"
   id="path26"
   d="m 479.87434,324.02866 a 25.967567,25.967567 0 0 1 14.79293,-31.51338 25.967567,25.967567 0 0 1 32.85056,11.52235 25.967567,25.967567 0 0 1 -8.13307,33.84933" /></g></g></svg>
